#!OML:ASF F:\VICON\USERDATA\INSTALL\Justin_Nancy\Justin_Nancy.ASF
:FULLY-SPECIFIED
:DEGREES
79
root 1.23834 16.5929 3.67734 -7.96236 -3.42704 -0.329395
lowerback 9.24013 1.78979 2.59674
upperback 0.154515 2.81646 3.04305
thorax -5.05437 1.36374 1.33364
lowerneck -19.7043 -4.67935 -8.3716
upperneck 19.2019 -5.18118 5.22102
head 9.69705 -2.43448 2.46463
rclavicle 3.08116e-014 6.36111e-015
rhumerus -31.6753 17.5478 -87.2061
rradius 116.256
rwrist -8.55697
rhand -11.2075 23.0605
rfingers 7.12502
rthumb 14.8206 -6.38947
lclavicle 3.08116e-014 6.36111e-015
lhumerus -66.0423 2.6077 91.0952
lradius 90.9571
lwrist 25.4506
lhand -15.5679 4.06466
lfingers 7.12502
lthumb 10.617 33.7765
rfemur -1.12426 9.30656 25.9539
rtibia 58.3185
rfoot -14.0345 -9.45128
rtoes -15.7197
lfemur -27.5668 -4.68196 -16.7854
ltibia 19.9858
lfoot -9.39967 6.82363
ltoes -6.53863
80
root 1.24552 16.5472 3.9908 -8.11612 -3.14271 -0.899286
lowerback 9.3613 1.56452 2.77553
upperback 0.334674 2.54569 3.28265
thorax -4.93556 1.23018 1.5186
lowerneck -20.6112 -4.75044 -8.52652
upperneck 19.4607 -5.2341 5.52545
head 9.97069 -2.42147 2.58086
rclavicle 1.83379e-014 2.3059e-014
rhumerus -30.9165 17.7009 -86.8466
rradius 115.988
rwrist -8.40914
rhand -11.0986 22.6441
rfingers 7.12502
rthumb 14.9255 -6.79813
lclavicle 1.83379e-014 2.3059e-014
lhumerus -66.5429 2.97452 90.9088
lradius 91.5163
lwrist 25.4962
lhand -16.1107 4.82326
lfingers 7.12502
lthumb 10.0933 34.5612
rfemur -1.17095 8.76679 26.4468
rtibia 60.1169
rfoot -12.0743 -8.24195
rtoes -15.1405
lfemur -27.0634 -3.79261 -16.6445
ltibia 20.0827
lfoot -9.21453 4.13618
ltoes -7.06901
81
root 1.25553 16.4899 4.30826 -8.48889 -2.76142 -1.22966
lowerback 9.63894 1.37254 2.75645
upperback 0.328468 2.30974 3.41346
thorax -5.10255 1.11417 1.69156
lowerneck -20.3171 -4.78672 -8.69148
upperneck 19.2126 -5.33355 5.87267
head 9.85219 -2.4434 2.71772
rclavicle 1.88845e-015 3.18055e-015
rhumerus -30.8372 17.6389 -86.6744
rradius 115.961
rwrist -8.42578
rhand -11.1131 21.5031
rfingers 7.12502
rthumb 14.9116 -7.94018
lclavicle 1.88845e-015 3.18055e-015
lhumerus -67.2431 2.94563 90.8042
lradius 91.9453
lwrist 25.5482
lhand -16.9316 7.89108
lfingers 7.12502
lthumb 9.30137 37.6659
rfemur -1.09125 8.0068 26.5761
rtibia 62.0622
rfoot -10.3777 -6.97763
rtoes -14.2494
lfemur -26.4453 -3.59814 -16.5891
ltibia 20.6761
lfoot -8.95407 1.69036
ltoes -8.95894
82
root 1.26034 16.4213 4.62718 -8.91188 -2.37596 -1.50392
lowerback 9.92478 1.18206 2.57919
upperback 0.285419 2.05967 3.52899
thorax -5.31628 0.995 1.94172
lowerneck -19.7431 -4.78215 -8.67983
upperneck 18.9003 -5.41399 6.05825
head 9.64954 -2.46778 2.77357
rclavicle -1.70955e-014 -1.59028e-014
rhumerus -30.7914 17.5202 -86.619
rradius 115.838
rwrist -8.24069
rhand -11.4819 20.5656
rfingers 7.12502
rthumb 14.5562 -8.90369
lclavicle -1.70955e-014 -1.59028e-014
lhumerus -67.6646 2.78416 90.7853
lradius 92.0524
lwrist 25.8184
lhand -15.1033 2.34282
lfingers 7.12502
lthumb 11.0651 32.0311
rfemur -1.07453 7.11022 26.5749
rtibia 64.1256
rfoot -8.71335 -5.55161
rtoes -11.7915
lfemur -25.9145 -3.71412 -16.5118
ltibia 21.7566
lfoot -7.69559 -0.595134
ltoes -11.5125
83
root 1.26778 16.3664 4.94825 -9.28864 -2.07032 -1.6721
lowerback 10.0576 1.01332 2.35427
upperback 0.365934 1.81521 3.58084
thorax -5.31073 0.88098 2.1562
lowerneck -19.4141 -4.80785 -8.64072
upperneck 18.4931 -5.52283 6.27381
head 9.4615 -2.49613 2.82757
rclavicle 1.05356e-014 1.66979e-014
rhumerus -30.7197 17.1677 -86.5682
rradius 115.496
rwrist -7.91632
rhand -11.826 21.7407
rfingers 7.12502
rthumb 14.2246 -7.75219
lclavicle 1.05356e-014 1.66979e-014
lhumerus -67.6721 2.44829 90.7299
lradius 92.0303
lwrist 25.8491
lhand -18.5914 9.91785
lfingers 7.12502
lthumb 7.69957 39.7577
rfemur -1.19151 6.22566 26.3825
rtibia 66.2264
rfoot -6.91447 -4.16878
rtoes -8.32486
lfemur -25.6007 -3.95473 -16.5203
ltibia 23.1575
lfoot -3.61818 -2.27094
ltoes -14.419
84
root 1.28098 16.3301 5.25616 -9.66104 -1.73571 -1.7252
lowerback 10.4005 0.857907 2.17745
upperback 0.423518 1.5979 3.52166
thorax -5.44076 0.776826 2.22174
lowerneck -19.3456 -4.86276 -8.6065
upperneck 18.2239 -5.66103 6.52785
head 9.37353 -2.53051 2.88954
rclavicle 4.27387e-015 1.19271e-014
rhumerus -30.7732 16.651 -86.6409
rradius 115.152
rwrist -7.46402
rhand -12.2958 22.7008
rfingers 7.12502
rthumb 13.7719 -6.82336
lclavicle 4.27387e-015 1.19271e-014
lhumerus -67.7452 2.00339 90.6116
lradius 92.1776
lwrist 25.5338
lhand -16.8442 7.7353
lfingers 7.12502
lthumb 9.38563 37.5063
rfemur -1.33186 5.25964 25.9862
rtibia 68.3222
rfoot -5.54676 -3.21831
rtoes -6.242
lfemur -25.8545 -3.92904 -16.7339
ltibia 24.9442
lfoot 2.97755 -2.77126
ltoes -15.7461
